<svg width="346" height="421" viewBox="0 0 346 421" fill="none" xmlns="http://www.w3.org/2000/svg">
<rect x="345.053" y="364.899" width="78" height="277.042" rx="39" transform="rotate(135 345.053 364.899)" fill="black"/>
<path d="M116 363C116 384.539 98.5391 402 77 402C55.4609 402 38 384.539 38 363V276.985C47.5623 279.36 58.0249 278.138 67.1855 272.743L116 243.997V363ZM77 0C84.0763 0 90.7122 1.885 96.4336 5.17969C100.151 7.01677 103.637 9.48237 106.731 12.5771L224.818 130.664C240.049 145.895 240.049 170.588 224.818 185.818C216.752 193.885 206.031 197.677 195.468 197.199L211.088 188.002C229.648 177.072 235.834 153.166 224.904 134.606C213.975 116.046 190.069 109.86 171.509 120.79L129.42 145.574L116 132.154V153.478L38 199.409V39C38 17.4609 55.4609 0 77 0Z" fill="black"/>
<rect x="39.5796" y="297.533" width="78" height="245" rx="39" transform="rotate(-120.493 39.5796 297.533)" fill="black"/>
</svg>
