<svg width="146" height="178" viewBox="0 0 146 178" fill="none" xmlns="http://www.w3.org/2000/svg">
<rect x="146" y="154.397" width="33.0037" height="117.223" rx="16.5018" transform="rotate(135 146 154.397)" fill="black"/>
<path d="M49.0826 153.594C49.0826 162.707 41.6943 170.096 32.5806 170.096C23.4669 170.096 16.0787 162.707 16.0787 153.594V117.198C20.1248 118.203 24.5521 117.687 28.4283 115.404L49.0826 103.24V153.594ZM32.5806 0C35.5734 2.35682e-05 38.3803 0.796541 40.8004 2.18945C42.3745 2.96691 43.8504 4.01098 45.1607 5.32129L95.1256 55.2871C101.57 61.7315 101.57 72.1797 95.1256 78.624C91.7124 82.0371 87.1764 83.6418 82.7066 83.4395L89.316 79.5479C97.1691 74.9233 99.7871 64.8083 95.1627 56.9551C90.5381 49.1019 80.4221 46.4848 72.5689 51.1094L54.7603 61.5957L49.0826 55.918V64.9395L16.0787 84.375V16.502C16.0787 7.38825 23.4669 0 32.5806 0Z" fill="black"/>
<rect x="16.7471" y="125.893" width="33.0036" height="103.665" rx="16.5018" transform="rotate(-120.493 16.7471 125.893)" fill="black"/>
</svg>
