<svg width="41" height="49" viewBox="0 0 41 49" fill="none" xmlns="http://www.w3.org/2000/svg">
<rect x="40.2511" y="42.5661" width="9.09886" height="32.3175" rx="4.54943" transform="rotate(135 40.2511 42.5661)" fill="black"/>
<path d="M13.5314 42.3447C13.5314 44.8572 11.495 46.8943 8.9826 46.8945C6.47005 46.8945 4.43283 44.8573 4.4328 42.3447V32.3096C5.54822 32.5866 6.76847 32.4456 7.8371 31.8164L13.5314 28.4629V42.3447ZM8.9826 0C9.81049 6.73583e-05 10.5863 0.221908 11.2551 0.608398C11.6862 0.822319 12.0912 1.10766 12.4504 1.4668L26.2258 15.2422C28.0022 17.0188 28.0021 19.8991 26.2258 21.6758C25.2849 22.6167 24.0341 23.0586 22.8019 23.0029L24.6242 21.9307C26.789 20.6556 27.5104 17.8671 26.2355 15.7021C24.9606 13.5371 22.1721 12.8159 20.007 14.0908L15.0969 16.9814L13.5314 15.416V17.9033L4.4328 23.2607V4.5498C4.4328 2.03723 6.47003 0 8.9826 0Z" fill="black"/>
<rect x="4.61707" y="34.7078" width="9.09885" height="28.5797" rx="4.54943" transform="rotate(-120.493 4.61707 34.7078)" fill="black"/>
</svg>
